:version 1.10
:name ASF
:units
  mass 1
  length 1
  angle deg
:documentation
  ASF file generated by Kaydara
:root
  axis xyz
  order  tx ty tz rx ry rz
  position 0 0 0
  orientation 0 0 0
:bonedata
  begin
    id 1
    name RightUpLegDummy
    direction -0.718183 -0.695806 0.00816078
    length 4.904
    axis 0 0 0 xyz
  end
  begin
    id 2
    name RightUpLeg
    direction 3.53373e-006 -0.995788 0.0916898
    length 17.4976
    axis -3.49089 -0.000906625 0.000286804 xyz
    dof rx ry rz
  end
  begin
    id 3
    name RightLeg
    direction 0.00371092 -0.995096 -0.0988419
    length 16.5821
    axis 3.68512 0.0193738 -0.131023 xyz
    dof rx ry rz
  end
  begin
    id 4
    name RightFoot
    direction 0.00079151 -0.46099 0.887405
    length 3.77069
    axis 4.81691e-005 -0.120479 -0.188788 xyz
    dof rx ry rz
  end
  begin
    id 5
    name RightToes
    direction 0 0 0
    length 0
    axis 0 0 0 xyz
    dof rx ry rz
  end
  begin
    id 6
    name SpineDummy
    direction 8.3039e-015 1 4.57515e-016
    length 4.6813
    axis 0 0 0 xyz
  end
  begin
    id 7
    name Spine
    direction -3.15643e-008 0.999988 0.00495137
    length 10.1015
    axis -0.001389 0.000121418 2.40972e-006 xyz
    dof rx ry rz
  end
  begin
    id 8
    name Spine1
    direction 0 0 0
    length 0
    axis -0.001389 0.000121451 1.30017e-006 xyz
    dof rx ry rz
  end
  begin
    id 9
    name HEadDummy
    direction -1.99912e-008 0.999999 0.00127422
    length 3.43865
    axis -0.001389 0.000121451 1.30017e-006 xyz
  end
  begin
    id 10
    name HEad
    direction 0 0 0
    length 0
    axis 0 0 0 xyz
    dof rx ry rz
  end
  begin
    id 11
    name LeftShoulder1Dummy
    direction 0.998891 -0.0402509 -0.0244456
    length 3.5433
    axis -0.001389 0.000121451 1.30017e-006 xyz
  end
  begin
    id 12
    name LeftShoulder1
    direction 0.99951 -0.000327763 0.0313091
    length 4.05031
    axis -0.001389 0.000121451 1.30017e-006 xyz
    dof rx ry rz
  end
  begin
    id 13
    name LeftArm
    direction 0.998561 -0.00100056 -0.0536182
    length 10.3537
    axis -23.1894 0.134784 0.967509 xyz
    dof rx ry rz
  end
  begin
    id 14
    name LeftForeArm
    direction 0.998903 0.00866432 0.046012
    length 8.70632
    axis -9.91835 -0.06569 -0.177794 xyz
    dof rx ry rz
  end
  begin
    id 15
    name LeftHand
    direction 0 0 0
    length 0
    axis 0 0 0 xyz
    dof rx ry rz
  end
  begin
    id 16
    name RightShoulderDummy
    direction -0.998891 -0.0402509 -0.0244414
    length 3.5433
    axis -0.001389 0.000121451 1.30017e-006 xyz
  end
  begin
    id 17
    name RightShoulder
    direction -0.99951 -0.000327807 0.0313133
    length 4.05031
    axis 0.215806 0.000203643 -0.0068026 xyz
    dof rx ry rz
  end
  begin
    id 18
    name RightArm
    direction -0.998573 -0.000999564 -0.053403
    length 10.3947
    axis -23.2009 -0.134239 -0.964101 xyz
    dof rx ry rz
  end
  begin
    id 19
    name RightForeArm
    direction -0.998898 0.00868028 0.0461306
    length 8.68355
    axis -9.92322 0.0658061 0.178868 xyz
    dof rx ry rz
  end
  begin
    id 20
    name RightHand
    direction 0 0 0
    length 0
    axis 0 0 0 xyz
    dof rx ry rz
  end
  begin
    id 21
    name LeftUpLegDummy
    direction 0.718183 -0.695806 0.00816078
    length 4.904
    axis 0 0 0 xyz
  end
  begin
    id 22
    name LeftUpLeg
    direction -6.81752e-006 -0.995793 0.0916337
    length 17.4976
    axis -3.48766 0.00143442 -0.000524262 xyz
    dof rx ry rz
  end
  begin
    id 23
    name LeftLeg
    direction -0.00601358 -0.995091 -0.0987824
    length 16.5821
    axis 3.68178 -0.00654042 -0.000285133 xyz
    dof rx ry rz
  end
  begin
    id 24
    name LeftFoot
    direction -0.00417578 -0.460984 0.887399
    length 3.77069
    axis 1.87233e-006 4.66016e-005 -8.6538e-006 xyz
    dof rx ry rz
  end
  begin
    id 25
    name LeftToes
    direction 0 0 0
    length 0
    axis 0 0 0 xyz
    dof rx ry rz
  end
:hierarchy
  begin
    root RightUpLegDummy SpineDummy LeftUpLegDummy
    RightUpLegDummy RightUpLeg
    RightUpLeg RightLeg
    RightLeg RightFoot
    RightFoot RightToes
    SpineDummy Spine
    Spine Spine1
    Spine1 HEadDummy LeftShoulder1Dummy RightShoulderDummy
    HEadDummy HEad
    LeftShoulder1Dummy LeftShoulder1
    LeftShoulder1 LeftArm
    LeftArm LeftForeArm
    LeftForeArm LeftHand
    RightShoulderDummy RightShoulder
    RightShoulder RightArm
    RightArm RightForeArm
    RightForeArm RightHand
    LeftUpLegDummy LeftUpLeg
    LeftUpLeg LeftLeg
    LeftLeg LeftFoot
    LeftFoot LeftToes
  end

:SAMPLES-PER-SECOND 30
:FULLY-SPECIFIED
:DEGREES
556
root  10.3122 38.081 11.2623 160.981 86.0154 164.497
RightUpLeg  -15.034 -14.259 -12.3991
RightLeg  34.8158 -3.9207 -3.18064
RightFoot  -10.8844 -0.10819 8.62193
RightToes  0.000481921 0.542163 -0.142578
Spine  29.225 -4.69411 -11.408
Spine1  4.45742 -14.7295 29.27
HEad  2.14462 20.207 -15.6755
LeftShoulder1  4.92655 -9.59676 -31.5147
LeftArm  -14.8569 -5.2431 -41.5385
LeftForeArm  -169.192 -55.2883 -167.214
LeftHand  -0.25398 0.0180481 5.50724
RightShoulder  3.5346 6.50002 29.3313
RightArm  -8.40082 -4.36205 39.3166
RightForeArm  -163.898 45.2274 171.375
RightHand  0.548939 0.819716 10.8154
LeftUpLeg  -18.399 14.0001 4.49861
LeftLeg  37.1284 3.68673 3.36008
LeftFoot  -10.6031 0.0827371 -3.02451
LeftToes  1.06245e-005 4.65869e-005 -8.65517e-006
557
root  10.4728 38.1296 11.4849 172.935 77.4655 175.573
RightUpLeg  -13.0906 -20.2306 -13.8184
RightLeg  35.2552 -5.75267 -4.61074
RightFoot  -11.7297 -0.0484305 9.29273
RightToes  0.000481921 0.542163 -0.142578
Spine  27.9443 -4.26012 -10.2112
Spine1  4.20676 -13.6571 28.8961
HEad  1.3042 12.2591 -13.1049
LeftShoulder1  6.3461 -10.5564 -38.9593
LeftArm  -4.73736 1.72185 -44.1753
LeftForeArm  -169.11 -56.8515 -166.38
LeftHand  -0.25398 0.0180481 5.50724
RightShoulder  3.02486 5.20225 28.7521
RightArm  -23.296 -12.5923 34.6657
RightForeArm  -157.94 44.5342 171.94
RightHand  -0.300286 -6.59902 18.6569
LeftUpLeg  -20.2327 8.0243 3.0591
LeftLeg  36.0275 1.91343 1.86922
LeftFoot  -9.17817 0.0978549 -2.31913
LeftToes  1.06245e-005 4.65869e-005 -8.65517e-006
558
root  10.5018 38.3252 11.7725 173.032 68.2409 173.848
RightUpLeg  -11.4066 -27.6533 -15.9014
RightLeg  34.609 -7.05074 -5.46268
RightFoot  -11.7467 -0.0448005 10.0339
RightToes  0.000481921 0.542163 -0.142578
Spine  26.1229 -3.69539 -5.62559
Spine1  3.45132 -10.2756 22.7259
HEad  0.0638167 0.476638 -6.80222
LeftShoulder1  7.1129 -11.4544 -41.2512
LeftArm  5.33937 2.55448 -45.1674
LeftForeArm  -166.482 -60.2026 -164.732
LeftHand  -0.25398 0.0180481 5.50724
RightShoulder  2.56385 4.03525 27.9921
RightArm  -36.4553 -16.1619 27.7271
RightForeArm  -153.925 45.8867 171.828
RightHand  -1.80224 -12.7393 26.0809
LeftUpLeg  -22.1735 3.14269 0.963822
LeftLeg  33.0407 -1.12237 -0.416491
LeftFoot  -6.24248 0.121973 -1.87831
LeftToes  1.06245e-005 4.65869e-005 -8.65517e-006
559
root  10.3147 38.5578 12.0971 171.786 60.9239 170.744
RightUpLeg  -10.6365 -33.4662 -18.5444
RightLeg  34.1507 -8.0712 -6.10807
RightFoot  -11.0584 -0.0997141 10.0766
RightToes  0.000481921 0.542163 -0.142578
Spine  25.5848 -2.96107 1.83849
Spine1  2.38293 -5.01292 10.2159
HEad  -2.8176 -11.5645 1.57902
LeftShoulder1  7.12401 -12.2851 -38.934
LeftArm  13.4035 -2.15048 -46.077
LeftForeArm  -164.773 -62.4611 -163.435
LeftHand  -0.25398 0.0180481 5.50724
RightShoulder  2.02464 2.84185 25.7488
RightArm  -44.6392 -13.8375 18.1257
RightForeArm  -156.652 54.0607 168.695
RightHand  -3.04133 -17.107 27.2107
LeftUpLeg  -22.9217 0.27287 -1.85866
LeftLeg  28.6379 -4.44138 -2.28597
LeftFoot  -2.53674 0.170627 -2.00404
LeftToes  1.06245e-005 4.65869e-005 -8.65517e-006
560
root  9.92025 38.6968 12.4319 169.42 57.5975 166.942
RightUpLeg  -11.8464 -35.1883 -20.5531
RightLeg  34.7285 -9.02762 -6.93034
RightFoot  -10.1976 -0.162996 9.37379
RightToes  0.000481921 0.542163 -0.142578
Spine  27.2534 -2.1699 9.92494
Spine1  1.22115 0.821627 -4.87205
HEad  -6.14065 -19.7467 8.04865
LeftShoulder1  6.94653 -12.9952 -36.0135
LeftArm  16.5476 -8.91052 -46.629
LeftForeArm  -165.738 -62.0838 -163.584
LeftHand  -0.25398 0.0180481 5.50724
RightShoulder  1.41661 1.89752 19.7513
RightArm  -48.9342 -5.5072 8.96012
RightForeArm  -164.343 71.4697 151.034
RightHand  -3.10955 -17.0576 28.3914
LeftUpLeg  -22.6481 0.302724 -4.81018
LeftLeg  24.2533 -6.9595 -3.1019
LeftFoot  0.565953 0.240479 -2.34276
LeftToes  1.06245e-005 4.65869e-005 -8.65517e-006
561
root  9.47624 38.6877 12.7648 166.011 58.4841 162.324
RightUpLeg  -15.2985 -33.0483 -21.1526
RightLeg  36.1732 -9.58309 -7.70826
RightFoot  -9.7546 -0.185375 8.55348
RightToes  0.000481921 0.542163 -0.142578
Spine  30.0496 -1.04522 15.3983
Spine1  0.611472 6.03082 -16.9644
HEad  -7.45301 -22.6835 9.09002
LeftShoulder1  6.9196 -13.4295 -34.8013
LeftArm  14.2181 -14.144 -45.9253
LeftForeArm  -167.917 -60.1556 -164.649
LeftHand  -0.25398 0.0180481 5.50724
RightShoulder  0.916189 1.75956 10.3163
RightArm  -52.7331 8.29419 2.74952
RightForeArm  122.424 80.8597 54.0761
RightHand  -0.701829 -7.52971 30.2369
LeftUpLeg  -22.6376 3.5254 -7.27972
LeftLeg  21.4265 -8.41902 -3.31053
LeftFoot  2.24231 0.286785 -2.52463
LeftToes  1.06245e-005 4.65869e-005 -8.65517e-006
562
root  9.19937 38.5476 13.0968 161.779 61.154 156.782
RightUpLeg  -19.6452 -30.0857 -21.1452
RightLeg  38.1438 -9.26612 -7.98808
RightFoot  -10.0488 -0.159148 8.01733
RightToes  0.000481921 0.542163 -0.142578
Spine  32.6485 0.136124 17.4137
Spine1  0.27552 9.6806 -24.2211
HEad  -6.97863 -21.7651 6.00917
LeftShoulder1  6.76396 -13.4289 -33.8955
LeftArm  8.92199 -16.9247 -45.3426
LeftForeArm  -168.859 -58.4347 -165.58
LeftHand  -0.25398 0.0180481 5.50724
RightShoulder  0.535878 2.48176 0.646082
RightArm  -57.4124 24.2698 -0.389752
RightForeArm  103.586 71.1951 19.8591
RightHand  1.9032 4.02705 23.606
LeftUpLeg  -23.6557 8.25048 -9.28806
LeftLeg  20.6995 -9.33926 -3.56129
LeftFoot  2.63726 0.303183 -2.60428
LeftToes  1.06245e-005 4.65869e-005 -8.65517e-006
563
root  9.18921 38.3151 13.4188 158.794 62.4501 152.639
RightUpLeg  -23.0068 -29.2033 -21.1998
RightLeg  40.5948 -8.40676 -7.92555
RightFoot  -11.0356 -0.0958086 7.72876
RightToes  0.000481921 0.542163 -0.142578
Spine  34.2116 0.794572 17.4979
Spine1  0.0547487 11.3495 -27.5036
HEad  -7.1503 -19.7025 3.50299
LeftShoulder1  6.49196 -13.2463 -32.7189
LeftArm  4.22901 -18.6175 -45.8805
LeftForeArm  -168.591 -57.2413 -166.24
LeftHand  -0.25398 0.0180481 5.50724
RightShoulder  0.184178 3.08911 -6.45871
RightArm  -58.6967 39.6166 -0.379138
RightForeArm  104.841 75.6858 32.0391
RightHand  1.36127 7.59272 10.8872
LeftUpLeg  -25.3393 11.1306 -10.6129
LeftLeg  21.7703 -9.77095 -3.94826
LeftFoot  2.21412 0.306684 -2.69424
LeftToes  1.06245e-005 4.65869e-005 -8.65517e-006
564
root  9.37308 38.0281 13.7037 159.435 61.4102 153.116
RightUpLeg  -23.9907 -30.4156 -21.1071
RightLeg  43.3126 -7.90898 -8.21348
RightFoot  -12.4619 -0.00883047 7.71549
RightToes  0.000481921 0.542163 -0.142578
Spine  34.644 0.754043 17.4689
Spine1  0.299174 11.5765 -28.1544
HEad  -8.37681 -18.6226 4.23753
LeftShoulder1  6.42671 -13.3493 -32.0933
LeftArm  1.70539 -20.2261 -46.5393
LeftForeArm  -168.536 -56.0031 -166.869
LeftHand  -0.25398 0.0180481 5.50724
RightShoulder  0.00847794 3.59239 -9.45621
RightArm  -51.5907 53.6986 4.08488
RightForeArm  139.239 81.9889 89.5445
RightHand  0.271794 4.14225 3.18205
LeftUpLeg  -26.8321 10.256 -10.3767
LeftLeg  24.3828 -9.25938 -4.2275
LeftFoot  1.16422 0.28803 -2.69175
LeftToes  1.06245e-005 4.65869e-005 -8.65517e-006
565
root  9.63215 37.7277 13.9336 161.997 59.3097 157.005
RightUpLeg  -22.4683 -31.5625 -20.8507
RightLeg  45.7852 -8.19268 -9.23634
RightFoot  -14.0619 0.0988593 8.14995
RightToes  0.000481921 0.542163 -0.142578
Spine  34.4132 0.556349 17.5691
Spine1  1.40894 11.3862 -26.9137
HEad  -9.42914 -19.0735 7.01325
LeftShoulder1  6.63699 -13.7308 -32.4676
LeftArm  0.862518 -21.6155 -46.4574
LeftForeArm  -168.644 -54.545 -167.552
LeftHand  -0.25398 0.0180481 5.50724
RightShoulder  0.0752147 5.19731 -8.67488
RightArm  -35.0048 63.4702 16.0524
RightForeArm  -173.431 78.0041 139.188
RightHand  0.564727 3.28207 7.09117
LeftUpLeg  -27.4877 7.07565 -8.57452
LeftLeg  28.0214 -7.98383 -4.24646
LeftFoot  -0.36036 0.250457 -2.58321
LeftToes  1.06245e-005 4.65869e-005 -8.65517e-006
566
root  9.91315 37.49 14.111 163.454 57.7048 160.511
RightUpLeg  -19.8916 -31.2547 -20.6565
RightLeg  47.5063 -8.97692 -10.6695
RightFoot  -15.5047 0.217099 8.85806
RightToes  0.000481921 0.542163 -0.142578
Spine  33.8122 0.779632 17.0545
Spine1  3.1823 11.4234 -24.9234
HEad  -9.62429 -20.572 10.0014
LeftShoulder1  6.78145 -13.8567 -33.0205
LeftArm  1.00574 -22.4464 -46.0988
LeftForeArm  -168.012 -53.0369 -168.264
LeftHand  -0.25398 0.0180481 5.50724
RightShoulder  0.51628 7.97867 -4.54929
RightArm  -17.8426 65.4561 30.3526
RightForeArm  -156.643 75.2798 148.845
RightHand  1.12046 5.21844 11.8427
LeftUpLeg  -27.1811 4.00266 -6.52523
LeftLeg  31.2196 -6.58573 -3.95061
LeftFoot  -1.85489 0.229127 -2.63091
LeftToes  1.06245e-005 4.65869e-005 -8.65517e-006
567
root  10.1989 37.4239 14.2307 163.609 57.0636 162.305
RightUpLeg  -17.5471 -30.169 -20.4821
RightLeg  47.9464 -9.83163 -11.7911
RightFoot  -16.3799 0.298869 9.31552
RightToes  0.000481921 0.542163 -0.142578
Spine  32.757 1.39375 15.842
Spine1  4.96215 11.6572 -23.3303
HEad  -9.30485 -22.2039 12.5708
LeftShoulder1  6.68317 -13.5581 -33.1282
LeftArm  1.74432 -22.4853 -45.939
LeftForeArm  -166.95 -51.4222 -169
LeftHand  -0.25398 0.0180481 5.50724
RightShoulder  1.4454 10.3142 2.36693
RightArm  -11.7613 61.0951 35.9156
RightForeArm  -152.541 74.7343 150.337
RightHand  1.29802 4.48167 14.7885
LeftUpLeg  -26.0746 2.00426 -5.10576
LeftLeg  32.52 -5.53303 -3.44766
LeftFoot  -2.75866 0.239136 -2.96549
LeftToes  1.06245e-005 4.65869e-005 -8.65517e-006
